<svg width="224.297mm" height="215.908mm" viewBox="0 0 224.297 215.908" xmlns="http://www.w3.org/2000/svg" version="1.1" preserveAspectRatio="xMidYMid meet"><g id="svgGroup" stroke-linecap="round" fill-rule="evenodd" font-size="9pt" stroke="#000" stroke-width="0.25mm" fill="none" style="stroke:#000;stroke-width:0.25mm;fill:none"><path d="M 11.15 215.862 L 11.15 213.408 L 16.615 213.408 L 16.615 215.862 L 16.662 215.908 L 22.353 215.908 L 22.4 215.862 L 22.4 213.408 L 27.865 213.408 L 27.865 215.862 L 27.912 215.908 L 33.603 215.908 L 33.65 215.862 L 33.65 213.408 L 39.115 213.408 L 39.115 215.862 L 39.162 215.908 L 44.853 215.908 L 44.9 215.862 L 44.9 213.408 L 50.365 213.408 L 50.365 215.862 L 50.412 215.908 L 56.103 215.908 L 56.15 215.862 L 56.15 213.408 L 61.615 213.408 L 61.615 215.862 L 61.662 215.908 L 67.353 215.908 L 67.4 215.862 L 67.4 213.408 L 72.719 213.408 L 72.766 213.362 L 72.766 210.433 L 72.719 210.386 L 69.325 210.386 L 69.325 204.921 L 72.719 204.921 L 72.766 204.874 L 72.766 199.183 L 72.719 199.136 L 69.325 199.136 L 69.325 193.671 L 72.719 193.671 L 72.766 193.624 L 72.766 187.933 L 72.719 187.886 L 69.325 187.886 L 69.325 182.421 L 72.719 182.421 L 72.766 182.374 L 72.766 176.683 L 72.719 176.636 L 69.325 176.636 L 69.325 171.171 L 72.719 171.171 L 72.766 171.124 L 72.766 165.695 L 72.719 165.648 L 3.488 165.648 L 3.441 165.695 L 3.441 171.011 L 0.047 171.011 L 0 171.058 L 0 176.749 L 0.047 176.796 L 3.441 176.796 L 3.441 182.261 L 0.047 182.261 L 0 182.308 L 0 187.999 L 0.047 188.046 L 3.441 188.046 L 3.441 193.511 L 0.047 193.511 L 0 193.558 L 0 199.249 L 0.047 199.296 L 3.441 199.296 L 3.441 204.761 L 0.047 204.761 L 0 204.808 L 0 210.499 L 0.047 210.546 L 3.441 210.546 L 3.441 213.362 L 3.488 213.408 L 5.365 213.408 L 5.365 215.862 L 5.412 215.908 L 11.103 215.908 L 11.15 215.862 Z" id="side1_outsideCutPath" stroke="#FF0000" stroke-width="0.1" style="stroke:#FF0000;stroke-width:0.1" vector-effect="non-scaling-stroke"/><path d="M 86.916 215.862 L 86.916 213.408 L 92.381 213.408 L 92.381 215.862 L 92.428 215.908 L 98.119 215.908 L 98.166 215.862 L 98.166 213.408 L 103.631 213.408 L 103.631 215.862 L 103.678 215.908 L 109.369 215.908 L 109.416 215.862 L 109.416 213.408 L 114.881 213.408 L 114.881 215.862 L 114.928 215.908 L 120.619 215.908 L 120.666 215.862 L 120.666 213.408 L 126.131 213.408 L 126.131 215.862 L 126.178 215.908 L 131.869 215.908 L 131.916 215.862 L 131.916 213.408 L 137.381 213.408 L 137.381 215.862 L 137.428 215.908 L 143.119 215.908 L 143.166 215.862 L 143.166 213.408 L 148.484 213.408 L 148.531 213.362 L 148.531 210.433 L 148.484 210.386 L 145.09 210.386 L 145.09 204.921 L 148.484 204.921 L 148.531 204.874 L 148.531 199.183 L 148.484 199.136 L 145.09 199.136 L 145.09 193.671 L 148.484 193.671 L 148.531 193.624 L 148.531 187.933 L 148.484 187.886 L 145.09 187.886 L 145.09 182.421 L 148.484 182.421 L 148.531 182.374 L 148.531 176.683 L 148.484 176.636 L 145.09 176.636 L 145.09 171.171 L 148.484 171.171 L 148.531 171.124 L 148.531 165.695 L 148.484 165.648 L 79.253 165.648 L 79.207 165.695 L 79.207 171.011 L 75.812 171.011 L 75.766 171.058 L 75.766 176.749 L 75.812 176.796 L 79.207 176.796 L 79.207 182.261 L 75.812 182.261 L 75.766 182.308 L 75.766 187.999 L 75.812 188.046 L 79.207 188.046 L 79.207 193.511 L 75.812 193.511 L 75.766 193.558 L 75.766 199.249 L 75.812 199.296 L 79.207 199.296 L 79.207 204.761 L 75.812 204.761 L 75.766 204.808 L 75.766 210.499 L 75.812 210.546 L 79.207 210.546 L 79.207 213.362 L 79.253 213.408 L 81.131 213.408 L 81.131 215.862 L 81.178 215.908 L 86.869 215.908 L 86.916 215.862 Z" id="side3_outsideCutPath" stroke="#FF0000" stroke-width="0.1" style="stroke:#FF0000;stroke-width:0.1" vector-effect="non-scaling-stroke"/><path d="M 11.15 162.602 L 11.15 160.148 L 16.615 160.148 L 16.615 162.602 L 16.662 162.648 L 22.353 162.648 L 22.4 162.602 L 22.4 160.148 L 27.865 160.148 L 27.865 162.602 L 27.912 162.648 L 33.603 162.648 L 33.65 162.602 L 33.65 160.148 L 39.115 160.148 L 39.115 162.602 L 39.162 162.648 L 44.853 162.648 L 44.9 162.602 L 44.9 160.148 L 50.365 160.148 L 50.365 162.602 L 50.412 162.648 L 56.103 162.648 L 56.15 162.602 L 56.15 160.148 L 61.615 160.148 L 61.615 162.602 L 61.662 162.648 L 67.353 162.648 L 67.4 162.602 L 67.4 160.148 L 72.719 160.148 L 72.766 160.102 L 72.766 157.173 L 72.719 157.126 L 69.325 157.126 L 69.325 151.661 L 72.719 151.661 L 72.766 151.614 L 72.766 145.923 L 72.719 145.876 L 69.325 145.876 L 69.325 140.411 L 72.719 140.411 L 72.766 140.364 L 72.766 134.673 L 72.719 134.626 L 69.325 134.626 L 69.325 129.161 L 72.719 129.161 L 72.766 129.114 L 72.766 123.423 L 72.719 123.376 L 69.325 123.376 L 69.325 117.911 L 72.719 117.911 L 72.766 117.864 L 72.766 112.435 L 72.719 112.388 L 3.488 112.388 L 3.441 112.435 L 3.441 117.751 L 0.047 117.751 L 0 117.798 L 0 123.489 L 0.047 123.536 L 3.441 123.536 L 3.441 129.001 L 0.047 129.001 L 0 129.048 L 0 134.739 L 0.047 134.786 L 3.441 134.786 L 3.441 140.251 L 0.047 140.251 L 0 140.298 L 0 145.989 L 0.047 146.036 L 3.441 146.036 L 3.441 151.501 L 0.047 151.501 L 0 151.548 L 0 157.239 L 0.047 157.286 L 3.441 157.286 L 3.441 160.102 L 3.488 160.148 L 5.365 160.148 L 5.365 162.602 L 5.412 162.648 L 11.103 162.648 L 11.15 162.602 Z" id="side0_outsideCutPath" stroke="#FF0000" stroke-width="0.1" style="stroke:#FF0000;stroke-width:0.1" vector-effect="non-scaling-stroke"/><path d="M 86.916 162.602 L 86.916 160.148 L 92.381 160.148 L 92.381 162.602 L 92.428 162.648 L 98.119 162.648 L 98.166 162.602 L 98.166 160.148 L 103.631 160.148 L 103.631 162.602 L 103.678 162.648 L 109.369 162.648 L 109.416 162.602 L 109.416 160.148 L 114.881 160.148 L 114.881 162.602 L 114.928 162.648 L 120.619 162.648 L 120.666 162.602 L 120.666 160.148 L 126.131 160.148 L 126.131 162.602 L 126.178 162.648 L 131.869 162.648 L 131.916 162.602 L 131.916 160.148 L 137.381 160.148 L 137.381 162.602 L 137.428 162.648 L 143.119 162.648 L 143.166 162.602 L 143.166 160.148 L 148.484 160.148 L 148.531 160.102 L 148.531 157.173 L 148.484 157.126 L 145.09 157.126 L 145.09 151.661 L 148.484 151.661 L 148.531 151.614 L 148.531 145.923 L 148.484 145.876 L 145.09 145.876 L 145.09 140.411 L 148.484 140.411 L 148.531 140.364 L 148.531 134.673 L 148.484 134.626 L 145.09 134.626 L 145.09 129.161 L 148.484 129.161 L 148.531 129.114 L 148.531 123.423 L 148.484 123.376 L 145.09 123.376 L 145.09 117.911 L 148.484 117.911 L 148.531 117.864 L 148.531 112.435 L 148.484 112.388 L 79.253 112.388 L 79.207 112.435 L 79.207 117.751 L 75.812 117.751 L 75.766 117.798 L 75.766 123.489 L 75.812 123.536 L 79.207 123.536 L 79.207 129.001 L 75.812 129.001 L 75.766 129.048 L 75.766 134.739 L 75.812 134.786 L 79.207 134.786 L 79.207 140.251 L 75.812 140.251 L 75.766 140.298 L 75.766 145.989 L 75.812 146.036 L 79.207 146.036 L 79.207 151.501 L 75.812 151.501 L 75.766 151.548 L 75.766 157.239 L 75.812 157.286 L 79.207 157.286 L 79.207 160.102 L 79.253 160.148 L 81.131 160.148 L 81.131 162.602 L 81.178 162.648 L 86.869 162.648 L 86.916 162.602 Z" id="side2_outsideCutPath" stroke="#FF0000" stroke-width="0.1" style="stroke:#FF0000;stroke-width:0.1" vector-effect="non-scaling-stroke"/><path d="M 162.681 215.862 L 162.681 213.408 L 168.146 213.408 L 168.146 215.862 L 168.193 215.908 L 173.885 215.908 L 173.931 215.862 L 173.931 213.408 L 179.396 213.408 L 179.396 215.862 L 179.443 215.908 L 185.135 215.908 L 185.181 215.862 L 185.181 213.408 L 190.646 213.408 L 190.646 215.862 L 190.693 215.908 L 196.385 215.908 L 196.431 215.862 L 196.431 213.408 L 201.896 213.408 L 201.896 215.862 L 201.943 215.908 L 207.635 215.908 L 207.681 215.862 L 207.681 213.408 L 213.146 213.408 L 213.146 215.862 L 213.193 215.908 L 218.885 215.908 L 218.931 215.862 L 218.931 213.408 L 224.25 213.408 L 224.297 213.362 L 224.297 210.433 L 224.25 210.386 L 220.856 210.386 L 220.856 204.921 L 224.25 204.921 L 224.297 204.874 L 224.297 199.183 L 224.25 199.136 L 220.856 199.136 L 220.856 193.671 L 224.25 193.671 L 224.297 193.624 L 224.297 187.933 L 224.25 187.886 L 220.856 187.886 L 220.856 182.421 L 224.25 182.421 L 224.297 182.374 L 224.297 176.683 L 224.25 176.636 L 220.856 176.636 L 220.856 171.171 L 224.25 171.171 L 224.297 171.124 L 224.297 165.695 L 224.25 165.648 L 155.019 165.648 L 154.972 165.695 L 154.972 171.011 L 151.578 171.011 L 151.531 171.058 L 151.531 176.749 L 151.578 176.796 L 154.972 176.796 L 154.972 182.261 L 151.578 182.261 L 151.531 182.308 L 151.531 187.999 L 151.578 188.046 L 154.972 188.046 L 154.972 193.511 L 151.578 193.511 L 151.531 193.558 L 151.531 199.249 L 151.578 199.296 L 154.972 199.296 L 154.972 204.761 L 151.578 204.761 L 151.531 204.808 L 151.531 210.499 L 151.578 210.546 L 154.972 210.546 L 154.972 213.362 L 155.019 213.408 L 156.896 213.408 L 156.896 215.862 L 156.943 215.908 L 162.635 215.908 L 162.681 215.862 Z" id="side4_outsideCutPath" stroke="#FF0000" stroke-width="0.1" style="stroke:#FF0000;stroke-width:0.1" vector-effect="non-scaling-stroke"/><path d="M 26.651 109.342 L 26.651 106.888 L 32.116 106.888 L 32.116 109.342 L 32.163 109.388 L 37.855 109.388 L 37.901 109.342 L 37.901 106.888 L 43.366 106.888 L 43.366 109.342 L 43.413 109.388 L 49.105 109.388 L 49.151 109.342 L 49.151 106.888 L 54.616 106.888 L 54.616 109.342 L 54.663 109.388 L 60.355 109.388 L 60.401 109.342 L 60.401 106.888 L 65.866 106.888 L 65.866 109.342 L 65.913 109.388 L 71.605 109.388 L 71.651 109.342 L 71.651 106.888 L 77.116 106.888 L 77.116 109.342 L 77.163 109.388 L 82.855 109.388 L 82.901 109.342 L 82.901 106.888 L 88.366 106.888 L 88.366 109.342 L 88.413 109.388 L 93.025 109.388 L 93.067 109.358 L 94.493 104.972 L 94.463 104.912 L 92.129 104.154 L 93.818 98.957 L 96.151 99.715 L 96.21 99.685 L 97.969 94.272 L 97.939 94.213 L 95.606 93.455 L 97.295 88.257 L 99.628 89.016 L 99.687 88.985 L 101.446 83.573 L 101.415 83.514 L 99.082 82.756 L 100.771 77.558 L 103.104 78.316 L 103.163 78.286 L 104.922 72.873 L 104.892 72.814 L 102.559 72.056 L 104.248 66.859 L 106.581 67.617 L 106.64 67.587 L 108.398 62.174 L 108.368 62.115 L 106.035 61.357 L 107.724 56.159 L 110.057 56.917 L 110.116 56.887 L 111.875 51.475 L 111.845 51.416 L 109.512 50.657 L 111.2 45.46 L 113.534 46.218 L 113.593 46.188 L 115.018 41.802 L 115.002 41.752 L 111.27 39.041 L 111.205 39.052 L 109.763 41.036 L 105.342 37.824 L 106.784 35.839 L 106.773 35.774 L 102.169 32.429 L 102.104 32.439 L 100.662 34.424 L 96.24 31.211 L 97.682 29.227 L 97.672 29.161 L 93.068 25.816 L 93.002 25.826 L 91.56 27.811 L 87.139 24.599 L 88.581 22.614 L 88.57 22.549 L 83.966 19.203 L 83.901 19.214 L 82.459 21.198 L 78.038 17.986 L 79.479 16.002 L 79.469 15.936 L 74.865 12.591 L 74.799 12.601 L 73.357 14.586 L 68.936 11.374 L 70.378 9.389 L 70.368 9.324 L 65.763 5.978 L 65.698 5.989 L 64.256 7.973 L 59.835 4.761 L 61.277 2.776 L 61.266 2.711 L 57.535 0 L 57.483 0 L 53.752 2.711 L 53.741 2.776 L 55.183 4.761 L 50.762 7.973 L 49.32 5.989 L 49.255 5.978 L 44.65 9.324 L 44.64 9.389 L 46.082 11.374 L 41.66 14.586 L 40.219 12.601 L 40.153 12.591 L 35.549 15.936 L 35.538 16.002 L 36.98 17.986 L 32.559 21.198 L 31.117 19.214 L 31.052 19.203 L 26.447 22.549 L 26.437 22.614 L 27.879 24.599 L 23.458 27.811 L 22.016 25.826 L 21.95 25.816 L 17.346 29.161 L 17.336 29.227 L 18.777 31.211 L 14.356 34.424 L 12.914 32.439 L 12.849 32.429 L 8.244 35.774 L 8.234 35.839 L 9.676 37.824 L 5.255 41.036 L 3.813 39.052 L 3.747 39.041 L 0.016 41.752 L 0 41.802 L 1.425 46.188 L 1.484 46.218 L 3.817 45.46 L 5.506 50.657 L 3.173 51.416 L 3.143 51.475 L 4.902 56.887 L 4.961 56.917 L 7.294 56.159 L 8.983 61.357 L 6.649 62.115 L 6.619 62.174 L 8.378 67.587 L 8.437 67.617 L 10.77 66.859 L 12.459 72.056 L 10.126 72.814 L 10.096 72.873 L 11.855 78.286 L 11.914 78.316 L 14.247 77.558 L 15.935 82.756 L 13.602 83.514 L 13.572 83.573 L 15.331 88.985 L 15.39 89.016 L 17.723 88.257 L 19.412 93.455 L 17.079 94.213 L 17.049 94.272 L 18.807 99.685 L 18.866 99.715 L 21.2 98.957 L 22.888 104.154 L 20.555 104.912 L 20.525 104.972 L 21.95 109.358 L 21.992 109.388 L 26.605 109.388 L 26.651 109.342 Z" id="bottom_outsideCutPath" stroke="#FF0000" stroke-width="0.1" style="stroke:#FF0000;stroke-width:0.1" vector-effect="non-scaling-stroke"/></g></svg>